<mxfile host="app.diagrams.net" modified="2021-02-10T03:41:25.235Z" agent="5.0 (Windows NT 10.0; WOW64) AppleWebKit/537.36 (KHTML, like Gecko) Chrome/78.0.3904.108 Safari/537.36" etag="sZBtHFJpU41xrsba7Krd" version="14.3.0" type="github">
  <diagram id="wo0mB_9vC7kp4Y8EsEce" name="第 1 页">
    <mxGraphModel dx="1117" dy="583" grid="1" gridSize="10" guides="1" tooltips="1" connect="1" arrows="1" fold="1" page="1" pageScale="1" pageWidth="827" pageHeight="1169" math="0" shadow="0">
      <root>
        <mxCell id="0" />
        <mxCell id="1" parent="0" />
        <mxCell id="Jh1LY0nJdYHfoOEOuXb1-1" value="FactoryA" style="swimlane;fontStyle=0;childLayout=stackLayout;horizontal=1;startSize=26;fillColor=none;horizontalStack=0;resizeParent=1;resizeParentMax=0;resizeLast=0;collapsible=1;marginBottom=0;" vertex="1" parent="1">
          <mxGeometry x="570" y="420" width="224" height="78" as="geometry">
            <mxRectangle x="450" y="300" width="70" height="26" as="alternateBounds" />
          </mxGeometry>
        </mxCell>
        <mxCell id="Jh1LY0nJdYHfoOEOuXb1-2" value="+ creatProduct1(String) : Product1" style="text;strokeColor=none;fillColor=none;align=left;verticalAlign=top;spacingLeft=4;spacingRight=4;overflow=hidden;rotatable=0;points=[[0,0.5],[1,0.5]];portConstraint=eastwest;" vertex="1" parent="Jh1LY0nJdYHfoOEOuXb1-1">
          <mxGeometry y="26" width="224" height="26" as="geometry" />
        </mxCell>
        <mxCell id="Jh1LY0nJdYHfoOEOuXb1-28" value="+ creatProduct2(String) : Product2" style="text;strokeColor=none;fillColor=none;align=left;verticalAlign=top;spacingLeft=4;spacingRight=4;overflow=hidden;rotatable=0;points=[[0,0.5],[1,0.5]];portConstraint=eastwest;" vertex="1" parent="Jh1LY0nJdYHfoOEOuXb1-1">
          <mxGeometry y="52" width="224" height="26" as="geometry" />
        </mxCell>
        <mxCell id="Jh1LY0nJdYHfoOEOuXb1-3" value="&lt;p style=&quot;margin: 0px ; margin-top: 4px ; text-align: center&quot;&gt;«abstract»&lt;br&gt;&lt;b&gt;AbstractProduct1&lt;/b&gt;&lt;/p&gt;&lt;hr size=&quot;1&quot;&gt;&lt;p style=&quot;margin: 0px ; margin-left: 4px&quot;&gt;+ method():&amp;nbsp;&lt;/p&gt;" style="verticalAlign=top;align=left;overflow=fill;fontSize=12;fontFamily=Helvetica;html=1;" vertex="1" parent="1">
          <mxGeometry x="134.5" y="170" width="131" height="70" as="geometry" />
        </mxCell>
        <mxCell id="Jh1LY0nJdYHfoOEOuXb1-4" value="Product1-A" style="swimlane;fontStyle=0;childLayout=stackLayout;horizontal=1;startSize=26;fillColor=none;horizontalStack=0;resizeParent=1;resizeParentMax=0;resizeLast=0;collapsible=1;marginBottom=0;" vertex="1" parent="1">
          <mxGeometry x="45" y="310" width="140" height="52" as="geometry" />
        </mxCell>
        <mxCell id="Jh1LY0nJdYHfoOEOuXb1-5" value="+ method():" style="text;strokeColor=none;fillColor=none;align=left;verticalAlign=top;spacingLeft=4;spacingRight=4;overflow=hidden;rotatable=0;points=[[0,0.5],[1,0.5]];portConstraint=eastwest;" vertex="1" parent="Jh1LY0nJdYHfoOEOuXb1-4">
          <mxGeometry y="26" width="140" height="26" as="geometry" />
        </mxCell>
        <mxCell id="Jh1LY0nJdYHfoOEOuXb1-6" value="Product1-B" style="swimlane;fontStyle=0;childLayout=stackLayout;horizontal=1;startSize=26;fillColor=none;horizontalStack=0;resizeParent=1;resizeParentMax=0;resizeLast=0;collapsible=1;marginBottom=0;" vertex="1" parent="1">
          <mxGeometry x="195" y="310" width="140" height="52" as="geometry" />
        </mxCell>
        <mxCell id="Jh1LY0nJdYHfoOEOuXb1-7" value="+ method():" style="text;strokeColor=none;fillColor=none;align=left;verticalAlign=top;spacingLeft=4;spacingRight=4;overflow=hidden;rotatable=0;points=[[0,0.5],[1,0.5]];portConstraint=eastwest;" vertex="1" parent="Jh1LY0nJdYHfoOEOuXb1-6">
          <mxGeometry y="26" width="140" height="26" as="geometry" />
        </mxCell>
        <mxCell id="Jh1LY0nJdYHfoOEOuXb1-8" value="Use" style="endArrow=open;endSize=12;dashed=1;html=1;entryX=0;entryY=0.5;entryDx=0;entryDy=0;exitX=1;exitY=0.5;exitDx=0;exitDy=0;" edge="1" parent="1" source="Jh1LY0nJdYHfoOEOuXb1-2" target="Jh1LY0nJdYHfoOEOuXb1-4">
          <mxGeometry width="160" relative="1" as="geometry">
            <mxPoint x="793" y="447" as="sourcePoint" />
            <mxPoint x="383.5999999999999" y="371.66200000000003" as="targetPoint" />
            <Array as="points">
              <mxPoint x="810" y="459" />
              <mxPoint x="810" y="150" />
              <mxPoint x="26" y="150" />
              <mxPoint x="26" y="337" />
            </Array>
          </mxGeometry>
        </mxCell>
        <mxCell id="Jh1LY0nJdYHfoOEOuXb1-9" value="抽象工厂模式" style="text;strokeColor=none;fillColor=none;html=1;fontSize=24;fontStyle=1;verticalAlign=middle;align=center;" vertex="1" parent="1">
          <mxGeometry x="64" y="40" width="700" height="40" as="geometry" />
        </mxCell>
        <mxCell id="Jh1LY0nJdYHfoOEOuXb1-10" value="FactoryB" style="swimlane;fontStyle=0;childLayout=stackLayout;horizontal=1;startSize=26;fillColor=none;horizontalStack=0;resizeParent=1;resizeParentMax=0;resizeLast=0;collapsible=1;marginBottom=0;" vertex="1" parent="1">
          <mxGeometry x="330" y="420" width="226" height="78" as="geometry">
            <mxRectangle x="450" y="300" width="70" height="26" as="alternateBounds" />
          </mxGeometry>
        </mxCell>
        <mxCell id="Jh1LY0nJdYHfoOEOuXb1-11" value="+ creatProduct1(String) : Product1" style="text;strokeColor=none;fillColor=none;align=left;verticalAlign=top;spacingLeft=4;spacingRight=4;overflow=hidden;rotatable=0;points=[[0,0.5],[1,0.5]];portConstraint=eastwest;" vertex="1" parent="Jh1LY0nJdYHfoOEOuXb1-10">
          <mxGeometry y="26" width="226" height="26" as="geometry" />
        </mxCell>
        <mxCell id="Jh1LY0nJdYHfoOEOuXb1-27" value="+ creatProduct2(String) : Product2 " style="text;strokeColor=none;fillColor=none;align=left;verticalAlign=top;spacingLeft=4;spacingRight=4;overflow=hidden;rotatable=0;points=[[0,0.5],[1,0.5]];portConstraint=eastwest;" vertex="1" parent="Jh1LY0nJdYHfoOEOuXb1-10">
          <mxGeometry y="52" width="226" height="26" as="geometry" />
        </mxCell>
        <mxCell id="Jh1LY0nJdYHfoOEOuXb1-12" value="Use" style="endArrow=open;endSize=12;dashed=1;html=1;entryX=1;entryY=0.5;entryDx=0;entryDy=0;exitX=0.25;exitY=0;exitDx=0;exitDy=0;" edge="1" parent="1" source="Jh1LY0nJdYHfoOEOuXb1-10" target="Jh1LY0nJdYHfoOEOuXb1-6">
          <mxGeometry width="160" relative="1" as="geometry">
            <mxPoint x="399" y="430" as="sourcePoint" />
            <mxPoint x="125.70000000000005" y="374.3399999999999" as="targetPoint" />
            <Array as="points">
              <mxPoint x="387" y="336" />
            </Array>
          </mxGeometry>
        </mxCell>
        <mxCell id="Jh1LY0nJdYHfoOEOuXb1-13" value="&lt;p style=&quot;margin: 0px ; margin-top: 4px ; text-align: center&quot;&gt;«abstract»&lt;br&gt;&lt;b&gt;Factory&lt;/b&gt;&lt;/p&gt;&lt;hr size=&quot;1&quot;&gt;&lt;p style=&quot;margin: 0px ; margin-left: 4px&quot;&gt;+ creatProduct1(String) : Product1&lt;/p&gt;&amp;nbsp;+ creatProduct2(String) : Product2" style="verticalAlign=top;align=left;overflow=fill;fontSize=12;fontFamily=Helvetica;html=1;" vertex="1" parent="1">
          <mxGeometry x="446" y="270" width="220" height="80" as="geometry" />
        </mxCell>
        <mxCell id="Jh1LY0nJdYHfoOEOuXb1-14" value="Extends" style="endArrow=block;endSize=16;endFill=0;html=1;entryX=0.25;entryY=1;entryDx=0;entryDy=0;exitX=0.5;exitY=0;exitDx=0;exitDy=0;" edge="1" parent="1" source="Jh1LY0nJdYHfoOEOuXb1-10" target="Jh1LY0nJdYHfoOEOuXb1-13">
          <mxGeometry width="160" relative="1" as="geometry">
            <mxPoint x="476" y="419.9999999999999" as="sourcePoint" />
            <mxPoint x="586" y="370" as="targetPoint" />
            <Array as="points">
              <mxPoint x="443" y="390" />
              <mxPoint x="501" y="390" />
            </Array>
          </mxGeometry>
        </mxCell>
        <mxCell id="Jh1LY0nJdYHfoOEOuXb1-15" value="Extends" style="endArrow=block;endSize=16;endFill=0;html=1;exitX=0.5;exitY=0;exitDx=0;exitDy=0;entryX=0.75;entryY=1;entryDx=0;entryDy=0;" edge="1" parent="1" source="Jh1LY0nJdYHfoOEOuXb1-1" target="Jh1LY0nJdYHfoOEOuXb1-13">
          <mxGeometry width="160" relative="1" as="geometry">
            <mxPoint x="486" y="429.9999999999999" as="sourcePoint" />
            <mxPoint x="606" y="352" as="targetPoint" />
            <Array as="points">
              <mxPoint x="682" y="390" />
              <mxPoint x="611" y="390" />
            </Array>
          </mxGeometry>
        </mxCell>
        <mxCell id="Jh1LY0nJdYHfoOEOuXb1-16" value="Extends" style="endArrow=block;endSize=16;endFill=0;html=1;entryX=0.25;entryY=1;entryDx=0;entryDy=0;exitX=0.25;exitY=0;exitDx=0;exitDy=0;" edge="1" parent="1" source="Jh1LY0nJdYHfoOEOuXb1-4" target="Jh1LY0nJdYHfoOEOuXb1-3">
          <mxGeometry width="160" relative="1" as="geometry">
            <mxPoint x="490" y="319.9999999999999" as="sourcePoint" />
            <mxPoint x="540" y="250.0000000000001" as="targetPoint" />
            <Array as="points">
              <mxPoint x="80" y="270" />
              <mxPoint x="167" y="270" />
            </Array>
          </mxGeometry>
        </mxCell>
        <mxCell id="Jh1LY0nJdYHfoOEOuXb1-17" value="Extends" style="endArrow=block;endSize=16;endFill=0;html=1;exitX=0.75;exitY=0;exitDx=0;exitDy=0;entryX=0.75;entryY=1;entryDx=0;entryDy=0;" edge="1" parent="1" source="Jh1LY0nJdYHfoOEOuXb1-6" target="Jh1LY0nJdYHfoOEOuXb1-3">
          <mxGeometry width="160" relative="1" as="geometry">
            <mxPoint x="720" y="319.9999999999999" as="sourcePoint" />
            <mxPoint x="650" y="250.0000000000001" as="targetPoint" />
            <Array as="points">
              <mxPoint x="300" y="270" />
              <mxPoint x="233" y="270" />
            </Array>
          </mxGeometry>
        </mxCell>
        <mxCell id="Jh1LY0nJdYHfoOEOuXb1-19" value="Product2-A" style="swimlane;fontStyle=0;childLayout=stackLayout;horizontal=1;startSize=26;fillColor=none;horizontalStack=0;resizeParent=1;resizeParentMax=0;resizeLast=0;collapsible=1;marginBottom=0;" vertex="1" parent="1">
          <mxGeometry x="55" y="590" width="140" height="52" as="geometry" />
        </mxCell>
        <mxCell id="Jh1LY0nJdYHfoOEOuXb1-20" value="+ method():" style="text;strokeColor=none;fillColor=none;align=left;verticalAlign=top;spacingLeft=4;spacingRight=4;overflow=hidden;rotatable=0;points=[[0,0.5],[1,0.5]];portConstraint=eastwest;" vertex="1" parent="Jh1LY0nJdYHfoOEOuXb1-19">
          <mxGeometry y="26" width="140" height="26" as="geometry" />
        </mxCell>
        <mxCell id="Jh1LY0nJdYHfoOEOuXb1-21" value="Product2-B" style="swimlane;fontStyle=0;childLayout=stackLayout;horizontal=1;startSize=26;fillColor=none;horizontalStack=0;resizeParent=1;resizeParentMax=0;resizeLast=0;collapsible=1;marginBottom=0;" vertex="1" parent="1">
          <mxGeometry x="205" y="590" width="140" height="52" as="geometry" />
        </mxCell>
        <mxCell id="Jh1LY0nJdYHfoOEOuXb1-22" value="+ method():" style="text;strokeColor=none;fillColor=none;align=left;verticalAlign=top;spacingLeft=4;spacingRight=4;overflow=hidden;rotatable=0;points=[[0,0.5],[1,0.5]];portConstraint=eastwest;" vertex="1" parent="Jh1LY0nJdYHfoOEOuXb1-21">
          <mxGeometry y="26" width="140" height="26" as="geometry" />
        </mxCell>
        <mxCell id="Jh1LY0nJdYHfoOEOuXb1-23" value="Extends" style="endArrow=block;endSize=16;endFill=0;html=1;entryX=0.25;entryY=1;entryDx=0;entryDy=0;exitX=0.25;exitY=0;exitDx=0;exitDy=0;" edge="1" parent="1" source="Jh1LY0nJdYHfoOEOuXb1-19" target="Jh1LY0nJdYHfoOEOuXb1-25">
          <mxGeometry width="160" relative="1" as="geometry">
            <mxPoint x="500" y="599.9999999999999" as="sourcePoint" />
            <mxPoint x="180" y="520" as="targetPoint" />
            <Array as="points">
              <mxPoint x="90" y="550" />
              <mxPoint x="172" y="550" />
            </Array>
          </mxGeometry>
        </mxCell>
        <mxCell id="Jh1LY0nJdYHfoOEOuXb1-24" value="Extends" style="endArrow=block;endSize=16;endFill=0;html=1;exitX=0.75;exitY=0;exitDx=0;exitDy=0;entryX=0.75;entryY=1;entryDx=0;entryDy=0;" edge="1" parent="1" source="Jh1LY0nJdYHfoOEOuXb1-21" target="Jh1LY0nJdYHfoOEOuXb1-25">
          <mxGeometry width="160" relative="1" as="geometry">
            <mxPoint x="730" y="599.9999999999999" as="sourcePoint" />
            <mxPoint x="230" y="520" as="targetPoint" />
            <Array as="points">
              <mxPoint x="310" y="550" />
              <mxPoint x="238" y="550" />
            </Array>
          </mxGeometry>
        </mxCell>
        <mxCell id="Jh1LY0nJdYHfoOEOuXb1-25" value="&lt;p style=&quot;margin: 0px ; margin-top: 4px ; text-align: center&quot;&gt;«abstract»&lt;br&gt;&lt;b&gt;AbstractProduct2&lt;/b&gt;&lt;/p&gt;&lt;hr size=&quot;1&quot;&gt;&lt;p style=&quot;margin: 0px ; margin-left: 4px&quot;&gt;+ method():&amp;nbsp;&lt;/p&gt;" style="verticalAlign=top;align=left;overflow=fill;fontSize=12;fontFamily=Helvetica;html=1;" vertex="1" parent="1">
          <mxGeometry x="139.5" y="450" width="131" height="70" as="geometry" />
        </mxCell>
        <mxCell id="Jh1LY0nJdYHfoOEOuXb1-30" value="Use" style="endArrow=open;endSize=12;dashed=1;html=1;entryX=0;entryY=0.5;entryDx=0;entryDy=0;exitX=1;exitY=0.5;exitDx=0;exitDy=0;" edge="1" parent="1" source="Jh1LY0nJdYHfoOEOuXb1-2" target="Jh1LY0nJdYHfoOEOuXb1-19">
          <mxGeometry width="160" relative="1" as="geometry">
            <mxPoint x="788.9999999999998" y="969" as="sourcePoint" />
            <mxPoint x="40" y="846" as="targetPoint" />
            <Array as="points">
              <mxPoint x="810" y="459" />
              <mxPoint x="810" y="660" />
              <mxPoint x="21" y="660" />
              <mxPoint x="21" y="616" />
            </Array>
          </mxGeometry>
        </mxCell>
        <mxCell id="Jh1LY0nJdYHfoOEOuXb1-31" value="Use" style="endArrow=open;endSize=12;dashed=1;html=1;entryX=1.006;entryY=0.057;entryDx=0;entryDy=0;exitX=0.264;exitY=1.016;exitDx=0;exitDy=0;entryPerimeter=0;exitPerimeter=0;" edge="1" parent="1" source="Jh1LY0nJdYHfoOEOuXb1-27" target="Jh1LY0nJdYHfoOEOuXb1-22">
          <mxGeometry width="160" relative="1" as="geometry">
            <mxPoint x="396.5000000000002" y="429.9999999999999" as="sourcePoint" />
            <mxPoint x="345" y="346" as="targetPoint" />
            <Array as="points">
              <mxPoint x="390" y="617" />
            </Array>
          </mxGeometry>
        </mxCell>
      </root>
    </mxGraphModel>
  </diagram>
</mxfile>
